<?xml version="1.0" encoding="UTF-8"?>
<svg version="1.1" xmlns="http://www.w3.org/2000/svg" width="280" height="280">
<path d="M0 0 C92.4 0 184.8 0 280 0 C280 92.4 280 184.8 280 280 C187.6 280 95.2 280 0 280 C0 187.6 0 95.2 0 0 Z " fill="#FEFEFF" transform="translate(0,0)"/>
<path d="M0 0 C4.62 0 9.24 0 14 0 C17.19328714 3.42534793 18.6497617 5.44077595 20.5625 9.5 C21.50108285 11.28136553 22.4398824 13.0626169 23.37890625 14.84375 C23.7663501 15.63974609 24.15379395 16.43574219 24.55297852 17.25585938 C26.50112943 20.95034499 28.7863729 24.45819664 31 28 C31.33 18.76 31.66 9.52 32 0 C35.63 0 39.26 0 43 0 C43 14.85 43 29.7 43 45 C38.38 45 33.76 45 29 45 C25.82144382 41.61785861 24.39417546 39.64727018 22.5 35.625 C22.04109375 34.75488281 21.5821875 33.88476562 21.109375 32.98828125 C20.23430868 31.32909652 19.38125203 29.65792733 18.56054688 27.97119141 C16.23345699 23.54054624 13.57484252 19.29140419 11 15 C10.67 24.9 10.34 34.8 10 45 C6.7 45 3.4 45 0 45 C0 30.15 0 15.3 0 0 Z " fill="#0E81FF" transform="translate(181,118)"/>
<path d="M0 0 C25.42857143 0 25.42857143 0 32.5 6.1875 C34.63138733 10.18385124 34.78081108 13.56499305 34 18 C31.98031034 21.96724754 30.26272329 24.47759883 26 26 C27.41427454 29.90879898 29.27615775 33.15968794 31.5625 36.625 C33.43749947 39.47063329 34.9209413 41.76282389 36 45 C32.04 45 28.08 45 24 45 C22.49480613 42.37785672 20.99568681 39.75255792 19.5 37.125 C19.07074219 36.37863281 18.64148438 35.63226563 18.19921875 34.86328125 C17.79316406 34.14785156 17.38710937 33.43242187 16.96875 32.6953125 C16.59169922 32.03547363 16.21464844 31.37563477 15.82617188 30.69580078 C15 29 15 29 15 27 C13.35 27 11.7 27 10 27 C10 32.94 10 38.88 10 45 C6.7 45 3.4 45 0 45 C0 30.15 0 15.3 0 0 Z " fill="#087EFF" transform="translate(109,118)"/>
<path d="M0 0 C10.23 0 20.46 0 31 0 C31 3.3 31 6.6 31 10 C24.07 10 17.14 10 10 10 C10 12.64 10 15.28 10 18 C16.6 18 23.2 18 30 18 C30 20.97 30 23.94 30 27 C23.4 27 16.8 27 10 27 C10 29.64 10 32.28 10 35 C17.26 35 24.52 35 32 35 C32 38.3 32 41.6 32 45 C21.44 45 10.88 45 0 45 C0 30.15 0 15.3 0 0 Z " fill="#1182FF" transform="translate(65,118)"/>
<path d="M0 0 C3.96 0 7.92 0 12 0 C12.44653931 1.17357056 12.44653931 1.17357056 12.90209961 2.37084961 C14.00510099 5.26587822 15.11049214 8.15997929 16.2175293 11.0534668 C16.93268815 12.92490826 17.6450647 14.79741217 18.35742188 16.66992188 C19.0293457 18.4246582 19.0293457 18.4246582 19.71484375 20.21484375 C20.12855225 21.29886475 20.54226074 22.38288574 20.96850586 23.49975586 C21.77114367 25.89914029 21.77114367 25.89914029 23 27 C23.29769287 26.21761963 23.59538574 25.43523926 23.90209961 24.62915039 C25.00510099 21.73412178 26.11049214 18.84002071 27.2175293 15.9465332 C27.93268815 14.07509174 28.6450647 12.20258783 29.35742188 10.33007812 C29.80537109 9.16025391 30.25332031 7.99042969 30.71484375 6.78515625 C31.12855225 5.70113525 31.54226074 4.61711426 31.96850586 3.50024414 C33 1 33 1 34 0 C35.68608966 -0.07205511 37.37500659 -0.08386068 39.0625 -0.0625 C39.98160156 -0.05347656 40.90070312 -0.04445313 41.84765625 -0.03515625 C42.55792969 -0.02355469 43.26820312 -0.01195313 44 0 C43.30206186 4.91812925 41.37469251 9.1997804 39.4375 13.73046875 C38.91047485 14.97791618 38.91047485 14.97791618 38.37280273 16.25056458 C37.25292834 18.89809575 36.12647981 21.54277359 35 24.1875 C34.24177069 25.97833921 33.48395357 27.76935299 32.7265625 29.56054688 C27.23011634 42.53976733 27.23011634 42.53976733 26 45 C23.36 45 20.72 45 18 45 C15.59595707 39.07400976 13.19335072 33.14743859 10.79174805 27.22045898 C9.97437169 25.20372284 9.15666506 23.18712052 8.33862305 21.1706543 C7.16368397 18.27427627 5.98992868 15.37742099 4.81640625 12.48046875 C4.44971329 11.57725388 4.08302032 10.674039 3.70521545 9.74345398 C3.3649382 8.90280899 3.02466095 8.062164 2.67407227 7.19604492 C2.22439842 6.08684944 2.22439842 6.08684944 1.76564026 4.95524597 C1.12628259 3.32249287 0.55449625 1.66348875 0 0 Z " fill="#097EFF" transform="translate(10,118)"/>
<path d="M0 0 C11.88 0 23.76 0 36 0 C36 2.97 36 5.94 36 9 C31.71 9 27.42 9 23 9 C23 20.88 23 32.76 23 45 C19.7 45 16.4 45 13 45 C13 33.12 13 21.24 13 9 C8.71 9 4.42 9 0 9 C0 6.03 0 3.06 0 0 Z " fill="#097FFF" transform="translate(234,118)"/>
<path d="M0 0 C3.3 0 6.6 0 10 0 C10 14.85 10 29.7 10 45 C6.7 45 3.4 45 0 45 C0 30.15 0 15.3 0 0 Z " fill="#0A7FFF" transform="translate(156,118)"/>
<path d="M0 0 C1.5675 -0.061875 3.135 -0.12375 4.75 -0.1875 C6.07257813 -0.23970703 6.07257813 -0.23970703 7.421875 -0.29296875 C10.44671583 0.05076316 11.75583602 1.00227459 14 3 C13.6875 5.375 13.6875 5.375 13 8 C8.61501596 10.92332269 5.2225328 10.1356502 0 10 C0 6.7 0 3.4 0 0 Z " fill="#F4F9FF" transform="translate(119,127)"/>
<path d="M0 0 C2.125 0.375 2.125 0.375 4 1 C4.625 2.875 4.625 2.875 5 5 C4.34 5.66 3.68 6.32 3 7 C0.875 6.625 0.875 6.625 -1 6 C-1.625 4.125 -1.625 4.125 -2 2 C-1.34 1.34 -0.68 0.68 0 0 Z " fill="#5DA9FF" transform="translate(265,156)"/>
</svg>
